<svg width="37" height="37" viewBox="0 0 37 37" fill="none" xmlns="http://www.w3.org/2000/svg">
<g clip-path="url(#clip0_19_231)">
<path d="M26.94 36.07H20.82L18 35.14L15.24 36.07H9.13C6.70857 36.07 4.38632 35.1081 2.67412 33.3959C0.961908 31.6837 0 29.3614 0 26.94V9.13C0 6.70857 0.961908 4.38632 2.67412 2.67412C4.38632 0.961908 6.70857 0 9.13 0L26.94 0C29.3614 0 31.6837 0.961908 33.3959 2.67412C35.1081 4.38632 36.07 6.70857 36.07 9.13V26.94C36.07 29.3614 35.1081 31.6837 33.3959 33.3959C31.6837 35.1081 29.3614 36.07 26.94 36.07Z" fill="#3B5998"/>
<path d="M15.2505 14.1102V18.0002H10.7305V23.1502H15.2505V36.0702H20.8205V23.1802H25.0005L25.7605 18.0002H20.8205V14.6902C20.7855 14.3059 20.8376 13.9186 20.9728 13.5571C21.108 13.1957 21.3229 12.8693 21.6014 12.6023C21.88 12.3352 22.2152 12.1343 22.582 12.0145C22.9488 11.8947 23.338 11.859 23.7205 11.9102H26.0005V7.53018C24.6775 7.31537 23.3406 7.19839 22.0005 7.18018C17.9105 7.18018 15.2505 9.64018 15.2505 14.1102Z" fill="white"/>
</g>
<defs>
<clipPath id="clip0_19_231">
<rect width="36.07" height="36.07" fill="white"/>
</clipPath>
</defs>
</svg>
