<svg width="37" height="37" viewBox="0 0 37 37" fill="none" xmlns="http://www.w3.org/2000/svg">
<g clip-path="url(#clip0_19_236)">
<path d="M26.94 0H9.13C4.08764 0 0 4.08764 0 9.13V26.94C0 31.9824 4.08764 36.07 9.13 36.07H26.94C31.9824 36.07 36.07 31.9824 36.07 26.94V9.13C36.07 4.08764 31.9824 0 26.94 0Z" fill="#00ACED"/>
<path d="M27.8703 12.0499C27.2319 12.3257 26.5591 12.5141 25.8703 12.6099C26.1903 12.6099 26.6503 11.9899 26.8703 11.7599C27.1577 11.4062 27.378 11.0029 27.5203 10.5699C27.5203 10.5699 27.5203 10.4899 27.5203 10.4599C27.4878 10.4492 27.4528 10.4492 27.4203 10.4599C26.6853 10.8559 25.9021 11.1551 25.0903 11.3499C25.0664 11.365 25.0386 11.373 25.0103 11.373C24.982 11.373 24.9543 11.365 24.9303 11.3499C24.8603 11.2799 24.8003 11.1999 24.7303 11.1399C24.3906 10.8542 24.0096 10.6216 23.6003 10.4499C22.9207 10.1766 22.18 10.0913 21.456 10.203C20.732 10.3147 20.0514 10.6192 19.4857 11.0846C18.92 11.5501 18.4901 12.1592 18.2411 12.8482C17.992 13.5371 17.933 14.2803 18.0703 14.9999C18.0703 15.0899 18.0703 15.0999 17.9903 15.0899C14.9125 14.7628 12.0654 13.3054 10.0003 10.9999C9.91031 10.8899 9.86031 10.8899 9.78031 10.9999C9.36675 11.7686 9.21061 12.6496 9.3348 13.5135C9.459 14.3775 9.85699 15.1789 10.4703 15.7999C10.6276 15.9538 10.7946 16.0974 10.9703 16.2299C10.4295 16.195 9.9018 16.0486 9.42031 15.7999C9.33031 15.7399 9.28031 15.7999 9.27031 15.8799C9.25606 16.0329 9.25606 16.1869 9.27031 16.3399C9.36451 17.0602 9.64841 17.7426 10.0929 18.3172C10.5375 18.8917 11.1267 19.3379 11.8003 19.6099C11.9636 19.6827 12.1347 19.7364 12.3103 19.7699C11.8105 19.854 11.3001 19.854 10.8003 19.7699C10.6903 19.7699 10.6403 19.7699 10.6903 19.9099C10.9478 20.5898 11.3753 21.1922 11.932 21.6597C12.4888 22.1272 13.1561 22.444 13.8703 22.5799C14.0103 22.5799 14.1603 22.5799 14.3003 22.6399C13.6821 23.2028 12.9325 23.6016 12.1203 23.7999C11.0628 24.1734 9.93767 24.3166 8.82031 24.2199C8.64031 24.2199 8.61031 24.2199 8.56031 24.2199C8.51031 24.2199 8.56031 24.2899 8.56031 24.3399C8.78316 24.4883 9.01346 24.6251 9.25031 24.7499C9.94982 25.1216 10.6874 25.4166 11.4503 25.6299C13.4219 26.2338 15.5176 26.3087 17.5273 25.8471C19.5369 25.3855 21.3899 24.4036 22.9003 22.9999C23.9817 21.8264 24.8182 20.449 25.3608 18.9482C25.9034 17.4475 26.1412 15.8537 26.0603 14.2599C26.0603 14.1399 26.2103 14.0699 26.3003 13.9999C26.8955 13.5448 27.4181 13.0019 27.8503 12.3899C27.9173 12.3006 27.9525 12.1915 27.9503 12.0799C28.0003 11.9999 28.0003 11.9999 27.8703 12.0499Z" fill="white"/>
</g>
<defs>
<clipPath id="clip0_19_236">
<rect width="36.07" height="36.07" fill="white"/>
</clipPath>
</defs>
</svg>
